<?xml version="1.0" encoding="UTF-8"?>
<!DOCTYPE svg PUBLIC "-//W3C//DTD SVG 1.1//EN" "http://www.w3.org/Graphics/SVG/1.1/DTD/svg11.dtd">
<svg xmlns="http://www.w3.org/2000/svg" version="1.1" width="573px" height="555px" style="shape-rendering:geometricPrecision; text-rendering:geometricPrecision; image-rendering:optimizeQuality; fill-rule:evenodd; clip-rule:evenodd" xmlns:xlink="http://www.w3.org/1999/xlink">
<g><path style="opacity:0.99" fill="#e67e22" d="M 236.5,40.5 C 247.838,40.3335 259.172,40.5001 270.5,41C 271,41.5 271.5,42 272,42.5C 272.667,53.8333 272.667,65.1667 272,76.5C 271.5,77 271,77.5 270.5,78C 259.167,78.6667 247.833,78.6667 236.5,78C 236,77.5 235.5,77 235,76.5C 234.333,65.1667 234.333,53.8333 235,42.5C 235.717,41.9558 236.217,41.2891 236.5,40.5 Z"/></g>
<g><path style="opacity:0.99" fill="#e67e22" d="M 356.5,40.5 C 367.838,40.3335 379.172,40.5001 390.5,41C 391,41.5 391.5,42 392,42.5C 392.667,53.8333 392.667,65.1667 392,76.5C 391.5,77 391,77.5 390.5,78C 379.167,78.6667 367.833,78.6667 356.5,78C 356,77.5 355.5,77 355,76.5C 354.333,65.1667 354.333,53.8333 355,42.5C 355.717,41.9558 356.217,41.2891 356.5,40.5 Z"/></g>
<g><path style="opacity:0.993" fill="#e67e22" d="M 174.5,41.5 C 185.838,41.3335 197.172,41.5001 208.5,42C 209,42.5 209.5,43 210,43.5C 210.667,54.8333 210.667,66.1667 210,77.5C 209.5,78 209,78.5 208.5,79C 197.167,79.6667 185.833,79.6667 174.5,79C 174,78.5 173.5,78 173,77.5C 172.333,66.1667 172.333,54.8333 173,43.5C 173.717,42.9558 174.217,42.2891 174.5,41.5 Z"/></g>
<g><path style="opacity:0.99" fill="#e67e22" d="M 297.5,41.5 C 308.838,41.3335 320.172,41.5001 331.5,42C 332,42.5 332.5,43 333,43.5C 333.667,54.8333 333.667,66.1667 333,77.5C 332.5,78 332,78.5 331.5,79C 320.167,79.6667 308.833,79.6667 297.5,79C 297,78.5 296.5,78 296,77.5C 295.333,66.1667 295.333,54.8333 296,43.5C 296.717,42.9558 297.217,42.2891 297.5,41.5 Z"/></g>
<g><path style="opacity:1" fill="#e67e22" d="M 112.5,96.5 C 226.167,96.3333 339.834,96.5 453.5,97C 460.667,98.8333 465.167,103.333 467,110.5C 467.667,224.167 467.667,337.833 467,451.5C 465.167,458.667 460.667,463.167 453.5,465C 339.833,465.667 226.167,465.667 112.5,465C 105.333,463.167 100.833,458.667 99,451.5C 98.3333,337.833 98.3333,224.167 99,110.5C 101.017,103.318 105.517,98.6518 112.5,96.5 Z"/></g>
<g><path style="opacity:0.943" fill="#e67e22" d="M 35.5,171.5 C 47.1714,171.333 58.8381,171.5 70.5,172C 71,172.5 71.5,173 72,173.5C 72.6667,185.167 72.6667,196.833 72,208.5C 71.5,209 71,209.5 70.5,210C 58.8333,210.667 47.1667,210.667 35.5,210C 35,209.5 34.5,209 34,208.5C 33.3333,196.833 33.3333,185.167 34,173.5C 34.7172,172.956 35.2172,172.289 35.5,171.5 Z"/></g>
<g><path style="opacity:0.943" fill="#e67e22" d="M 497.5,173.5 C 509.171,173.333 520.838,173.5 532.5,174C 533,174.5 533.5,175 534,175.5C 534.667,187.167 534.667,198.833 534,210.5C 533.5,211 533,211.5 532.5,212C 520.833,212.667 509.167,212.667 497.5,212C 497,211.5 496.5,211 496,210.5C 495.333,198.833 495.333,187.167 496,175.5C 496.717,174.956 497.217,174.289 497.5,173.5 Z"/></g>
<g><path style="opacity:0.94" fill="#e67e22" d="M 36.5,233.5 C 48.1714,233.333 59.8381,233.5 71.5,234C 72,234.5 72.5,235 73,235.5C 73.6667,247.167 73.6667,258.833 73,270.5C 72.5,271 72,271.5 71.5,272C 59.8333,272.667 48.1667,272.667 36.5,272C 36,271.5 35.5,271 35,270.5C 34.3333,258.833 34.3333,247.167 35,235.5C 35.7172,234.956 36.2172,234.289 36.5,233.5 Z"/></g>
<g><path style="opacity:0.94" fill="#e67e22" d="M 498.5,235.5 C 510.171,235.333 521.838,235.5 533.5,236C 534,236.5 534.5,237 535,237.5C 535.667,249.167 535.667,260.833 535,272.5C 534.5,273 534,273.5 533.5,274C 521.833,274.667 510.167,274.667 498.5,274C 498,273.5 497.5,273 497,272.5C 496.333,260.833 496.333,249.167 497,237.5C 497.717,236.956 498.217,236.289 498.5,235.5 Z"/></g>
<g><path style="opacity:0.94" fill="#e67e22" d="M 35.5,294.5 C 47.1714,294.333 58.8381,294.5 70.5,295C 71,295.5 71.5,296 72,296.5C 72.6667,308.167 72.6667,319.833 72,331.5C 71.5,332 71,332.5 70.5,333C 58.8333,333.667 47.1667,333.667 35.5,333C 35,332.5 34.5,332 34,331.5C 33.3333,319.833 33.3333,308.167 34,296.5C 34.7172,295.956 35.2172,295.289 35.5,294.5 Z"/></g>
<g><path style="opacity:0.94" fill="#e67e22" d="M 497.5,296.5 C 509.171,296.333 520.838,296.5 532.5,297C 533,297.5 533.5,298 534,298.5C 534.667,310.167 534.667,321.833 534,333.5C 533.5,334 533,334.5 532.5,335C 520.833,335.667 509.167,335.667 497.5,335C 497,334.5 496.5,334 496,333.5C 495.333,321.833 495.333,310.167 496,298.5C 496.717,297.956 497.217,297.289 497.5,296.5 Z"/></g>
<g><path style="opacity:0.94" fill="#e67e22" d="M 36.5,353.5 C 48.1714,353.333 59.8381,353.5 71.5,354C 72,354.5 72.5,355 73,355.5C 73.6667,367.167 73.6667,378.833 73,390.5C 72.5,391 72,391.5 71.5,392C 59.8333,392.667 48.1667,392.667 36.5,392C 36,391.5 35.5,391 35,390.5C 34.3333,378.833 34.3333,367.167 35,355.5C 35.7172,354.956 36.2172,354.289 36.5,353.5 Z"/></g>
<g><path style="opacity:0.94" fill="#e67e22" d="M 498.5,355.5 C 510.171,355.333 521.838,355.5 533.5,356C 534,356.5 534.5,357 535,357.5C 535.667,369.167 535.667,380.833 535,392.5C 534.5,393 534,393.5 533.5,394C 521.833,394.667 510.167,394.667 498.5,394C 498,393.5 497.5,393 497,392.5C 496.333,380.833 496.333,369.167 497,357.5C 497.717,356.956 498.217,356.289 498.5,355.5 Z"/></g>
<g><path style="opacity:0.99" fill="#e67e22" d="M 236.5,481.5 C 247.838,481.333 259.172,481.5 270.5,482C 271,482.5 271.5,483 272,483.5C 272.667,494.833 272.667,506.167 272,517.5C 271.5,518 271,518.5 270.5,519C 259.167,519.667 247.833,519.667 236.5,519C 236,518.5 235.5,518 235,517.5C 234.333,506.167 234.333,494.833 235,483.5C 235.717,482.956 236.217,482.289 236.5,481.5 Z"/></g>
<g><path style="opacity:0.99" fill="#e67e22" d="M 356.5,481.5 C 367.838,481.333 379.172,481.5 390.5,482C 391,482.5 391.5,483 392,483.5C 392.667,494.833 392.667,506.167 392,517.5C 391.5,518 391,518.5 390.5,519C 379.167,519.667 367.833,519.667 356.5,519C 356,518.5 355.5,518 355,517.5C 354.333,506.167 354.333,494.833 355,483.5C 355.717,482.956 356.217,482.289 356.5,481.5 Z"/></g>
<g><path style="opacity:0.993" fill="#e67e22" d="M 174.5,482.5 C 185.838,482.333 197.172,482.5 208.5,483C 209,483.5 209.5,484 210,484.5C 210.667,495.833 210.667,507.167 210,518.5C 209.5,519 209,519.5 208.5,520C 197.167,520.667 185.833,520.667 174.5,520C 174,519.5 173.5,519 173,518.5C 172.333,507.167 172.333,495.833 173,484.5C 173.717,483.956 174.217,483.289 174.5,482.5 Z"/></g>
<g><path style="opacity:0.99" fill="#e67e22" d="M 297.5,482.5 C 308.838,482.333 320.172,482.5 331.5,483C 332,483.5 332.5,484 333,484.5C 333.667,495.833 333.667,507.167 333,518.5C 332.5,519 332,519.5 331.5,520C 320.167,520.667 308.833,520.667 297.5,520C 297,519.5 296.5,519 296,518.5C 295.333,507.167 295.333,495.833 296,484.5C 296.717,483.956 297.217,483.289 297.5,482.5 Z"/></g>
<g><path style="opacity:0.024" fill="#000000" d="M 286.5,554.5 C 287.167,553.167 287.833,553.167 288.5,554.5C 287.833,554.5 287.167,554.5 286.5,554.5 Z"/></g>
</svg>
